<?xml version="1.0" standalone="no"?><!DOCTYPE svg PUBLIC "-//W3C//DTD SVG 1.1//EN" "http://www.w3.org/Graphics/SVG/1.1/DTD/svg11.dtd"><svg t="1725962454816" class="icon" viewBox="0 0 1024 1024" version="1.1" xmlns="http://www.w3.org/2000/svg" p-id="5752" xmlns:xlink="http://www.w3.org/1999/xlink" width="64" height="64"><path d="M506.849251 51.259013a503.606781 503.606781 0 0 1 122.70189 15.359068A460.772046 460.772046 0 0 1 506.849251 972.803106a503.606781 503.606781 0 0 1-122.701889-15.359068A460.772046 460.772046 0 0 1 506.849251 51.259013m0-51.196894a464.867798 464.867798 0 0 0-219.805332 51.196894A511.968941 511.968941 0 1 0 972.740987 286.764726 519.477818 519.477818 0 0 0 506.849251 0.062119z" fill="#0C6EAA" p-id="5753"></path><path d="M726.654583 972.803106a471.182082 471.182082 0 0 0 199.49723-174.752065v5.119689a100.516569 100.516569 0 0 1-86.864063 46.077205 108.025446 108.025446 0 0 1-107.513478-107.342821v-20.478758l66.555963-409.575152a141.815397 141.815397 0 0 0 5.119689-46.077205A262.128098 262.128098 0 0 0 593.713315 10.64281 492.343464 492.343464 0 0 0 287.043919 51.259013a238.918839 238.918839 0 0 1 117.5822-30.54748 253.083313 253.083313 0 0 1 255.984471 255.98447 266.906474 266.906474 0 0 1-138.402271 229.874054 255.98447 255.98447 0 0 0 97.103443 490.978214A254.107251 254.107251 0 0 0 726.654583 972.803106" fill="#0C6EAA" p-id="5754"></path><path d="M210.248578 77.028116A68.262525 68.262525 0 0 0 281.92423 153.652801a85.328157 85.328157 0 0 0 51.196894-15.359068A198.473293 198.473293 0 0 1 614.362729 184.541594a194.718854 194.718854 0 0 1 15.359068 209.565953c61.436273-127.821579 15.359068-281.241605-112.462511-342.677878a467.598299 467.598299 0 0 0-112.46251-30.54748A299.672487 299.672487 0 0 0 271.684851 51.259013a94.543598 94.543598 0 0 1-61.436273 25.598447" fill="#FFC600" p-id="5755"></path><path d="M414.865498 297.004104m-61.436273 0a61.436273 61.436273 0 1 0 122.872546 0 61.436273 61.436273 0 1 0-122.872546 0Z" fill="#0C6EAA" p-id="5756"></path><path d="M808.569613 266.285968v490.807558a69.969089 69.969089 0 0 0 71.504996 71.675651 71.163683 71.163683 0 0 0 51.196894-25.598447v5.11969a100.516569 100.516569 0 0 1-86.864064 46.077204 108.196103 108.196103 0 0 1-107.513477-107.513477v-20.308101l66.555962-409.575153" fill="#FFC600" p-id="5757"></path></svg>