<?xml version="1.0" standalone="no"?><!DOCTYPE svg PUBLIC "-//W3C//DTD SVG 1.1//EN" "http://www.w3.org/Graphics/SVG/1.1/DTD/svg11.dtd"><svg t="1735076185569" class="icon" viewBox="0 0 1024 1024" version="1.1" xmlns="http://www.w3.org/2000/svg" p-id="12583" xmlns:xlink="http://www.w3.org/1999/xlink" width="200" height="200"><path d="M0 2.816V1024h1024V0z" fill="#E21010" p-id="12584"></path><path d="M248.0128 230.5024c-71.0144 92.16 33.3312 11.7248 29.5424 64.8704-32.3072 71.8336-22.8352 32.3072-82.3808 68.608-5.9904-70.7584-18.5856-18.7392-62.1568-0.768 7.3216-21.4016 69.2224-82.0224 81.5616-121.8048 35.2256-44.3392-54.1696-18.944-16.3328-38.656 28.5696-2.048 67.84-33.8432 93.2352-18.944 0.9728 26.1632-76.288 11.1104-43.4688 46.6944z m-7.7824 99.1744c10.496-39.424 2.2528-40.0384-34.2016-30.6176 0 30.1568-6.9632 52.3776 34.2016 30.6176z m183.296-142.9504c54.016-0.768 65.3824 35.1744 2.304 45.2096-33.28 7.7824 52.4288-52.9408-48.9472-18.944-21.5552 68.7104 26.9312 26.9312 41.216 64.1536-40.0896 61.696 6.7072 108.7488 70.656 121.0368 25.2928 11.7248-69.3248 13.568-73.7792-2.9184-14.0288-58.1632-95.8976 18.9952-93.2352-6.5536 82.1248-21.9136 16.8448-75.4688 12.3904-93.3376 29.44 2.4064 52.1728 70.4512 55.1936 0.7168 10.24-43.1616-31.9488-9.728-48.1792-8.0384-16.64 1.024-21.9648-9.3696-21.76 13.8752 13.1584 48.1792-94.8224 143.4112-76.9024 105.728 62.464-40.2432 67.7888-144.5376 59.0336-193.2288 59.8528 19.8144 67.072-45.568 45.824-82.432 75.1616-42.3936-17.8176 114.432 76.1856 54.7328zM322.56 280.064c34.4064 1.7408 37.888-31.0272 34.1504-59.8016-40.7552-0.256-31.5392 32.1536-34.1504 59.8016zM684.544 218.8288c-15.104 0.6144-41.2672 11.2128-53.6064-3.6352-1.8944-16.9472 85.2992-2.4576 64.4608-56.1664-144.7424 4.864 67.9936-43.1104 108.7488-25.4976 6.2976 24.2176-52.0704 11.6736-96.3072 22.6304 38.8096 50.432-38.5536 46.2848 65.28 34.9696 50.5344 41.984-79.8208 99.6352 80.0256 69.9904 141.2096 25.6512-269.6704 37.3248-304.4864 40.8576-43.776-44.4416 153.1392 22.8864 135.8848-83.1488z m109.5168 187.392c-91.9552 15.3088-173.7728 28.5184-163.8912-79.5136 41.3696 24.9856 177.7152-48.5376 178.688 16.7936-12.6976 3.2768-30.3616 48.64-14.7968 62.72z m-129.7408-5.0688c45.056 3.4816 142.7968-7.68 91.648-65.6384-11.2128-0.3072-126.9248-1.4848-91.648 65.6384z m82.3808-131.2768c8.704-50.1248 25.088-74.2912-38.8608-56.8832-23.8592 58.1632-24.8832 69.2736 38.8608 56.8832zM269.7216 598.3232c110.0288-3.3792-83.712 72.0384-3.1232 56.1664 34.7136-2.8672 30.5664 17.8176 22.528 45.9264-4.1984 35.9936 28.16 222.3616-42.7008 132.7104-10.3424-6.8096-10.0864-8.96 0.768-6.5536 61.5936 29.5936 14.6944-234.24-6.1952-140.032-8.5504 25.344 2.5088 20.6336 22.528 26.9824-4.608 19.9168-34.7648 1.536-24.832 43.776 32.9216-10.9056 32.9216 13.6704 0 11.6736-0.256 24.3712-7.5264 82.688-14.7456 51.0464-3.0208-20.6336 5.4272-53.9136-26.4192-50.3296-11.6736-7.68 10.496-6.2464 24.064-9.472 7.2704-43.6224-12.288-21.9648-27.1872-37.888 73.3184-31.6416-20.4288-95.3856-3.072 24.7808-3.6864 35.84-9.6256 80.7424-37.3248 105.728-13.824 9.5232 45.1072-143.2576 17.8176-179.4048 5.632-13.1072 81.9712-6.7584 87.7568-54.016-44.032-36.4544-171.3664 132.1984-64.4608-3.6352 26.0096-34.7136 29.952-80.0256 52.0704-32.1024-45.2096 35.84 11.7248 17.152 22.528 14.6432z m116.5312 121.0368c-14.592-42.0352-0.9216-50.7904 21.76-23.3472-15.2064 35.584 24.1664 8.192 41.9328 19.712 18.432 22.2208-64.2048-2.6624-45.056 47.4112 26.8288-7.0144 122.8288-7.168 72.2432 9.472-94.3616-25.4976-63.2832 68.9152-83.0976 120.32-20.3776-38.0416 18.7904-148.5312-66.048-109.4144-6.2976 5.5808-47.0016-13.1072-17.8688-13.1584 10.9056-5.0176 92.3136 12.9024 76.1344-36.4544-36.864-15.2064-76.9536 40.6528-71.4752 17.5104 21.9648-20.8896 5.7856-70.1952 41.1648-49.6128 5.9904 23.1936-15.0016 26.9312 30.3104 17.5616z m0.768-96.9728c-1.792 10.8544-84.992 100.8128-66.816 62.72 24.6272-32.2048 68.1472-75.8272 10.9056-77.2608 4.3008-9.8816 104.2944-35.072 124.2624-14.6432-1.4336 33.536-42.752 130.9184-65.9968 56.8832 65.792 10.5984 16.384-99.0208-2.3552-27.6992zM634.0608 817.1008c-158.72 116.224 5.7344-8.2432 28.7232-75.8272-11.3664 11.0592-87.2448 3.2256-50.4832-9.5232 22.272 3.1232 77.4656-7.8336 62.1568-43.008 66.56-23.9104-31.8976 63.1296 85.4528 21.1456 103.8848 9.984-95.0272 10.3424-125.8496 107.2128z m215.9104-141.4656c-11.8784-6.2976-68.9664 43.6224-56.7296 13.8752 4.5056-50.7392-198.5024-10.752-220.5696 50.2784-13.3632-20.48 8.0896-59.4432 16.2816-74.3424 42.752 58.1632 253.0304-78.592 261.0176 10.1888z m-189.4912-15.36c-6.8096 23.1936-36.1984-19.6096-41.1648-34.2528-5.0176-16.4864 58.624 14.2336 41.1648 34.2528z m103.2704 121.088c-65.792 57.7024 50.3808 75.9296 97.8944 84.5824 60.2112 7.5776-58.5728 25.5488-66.048 15.3088-55.6544-59.1872-95.744-18.8416-163.8912-6.5536-19.7632-2.56 69.0176-26.2144 79.2064-51.8144-11.9296-16.5376-69.8368-23.7056-35.7376-30.6176 22.6816 7.5776 58.8288 32.8704 55.1424-13.1584-13.6704-8.2432-51.0976 17.7664-59.8016-5.12 22.528-0.2048 99.2256-36.1472 93.2352 7.3728z m-19.4048-195.4304c-22.8352 2.5088-110.3872 38.7584-100.1984 23.3472 28.0064-10.496 104.8576-81.1008 100.1984-23.3472z m-65.2288 27.6992c15.7696-5.1712 47.104 13.312 33.3824 34.2528-4.864 18.8928-38.3488-29.2864-33.3824-34.2528z m109.5168-1.4848c-13.1072 2.56-74.2912 58.9824-59.0336 32.1024 20.3776-25.0368 30.5152-78.7968 59.0336-32.1024z" fill="#FFFFFF" p-id="12585"></path></svg>