<?xml version="1.0" standalone="no"?><!DOCTYPE svg PUBLIC "-//W3C//DTD SVG 1.1//EN" "http://www.w3.org/Graphics/SVG/1.1/DTD/svg11.dtd"><svg t="1735211109277" class="icon" viewBox="0 0 1024 1024" version="1.1" xmlns="http://www.w3.org/2000/svg" p-id="16433" xmlns:xlink="http://www.w3.org/1999/xlink" width="200" height="200"><path d="M928 160H96a32 32 0 0 0-32 32v640a32 32 0 0 0 32 32h832a32 32 0 0 0 32-32V192a32 32 0 0 0-32-32z m-24 56v131H120V216zM494.7 808V649.21L586.51 808z m138 0l-131-226.48 70.58-43.24V558a8 8 0 0 0 8 8h40a8 8 0 0 0 8-8V457.66a8 8 0 0 0-8-8h-40a8 8 0 0 0-8 8v33.7l-90.61 55.52-27 16.58-109 66.66a8 8 0 0 0-2.67 11.06l12.77 20.48a8 8 0 0 0 11 2.59l87.93-53.88V808H120V403h784v405z" fill="#d0887c" p-id="16434"></path><path d="M186 283m-26 0a26 26 0 1 0 52 0 26 26 0 1 0-52 0Z" fill="#d0887c" p-id="16435"></path><path d="M278 283m-26 0a26 26 0 1 0 52 0 26 26 0 1 0-52 0Z" fill="#d0887c" p-id="16436"></path><path d="M370 283m-26 0a26 26 0 1 0 52 0 26 26 0 1 0-52 0Z" fill="#d0887c" p-id="16437"></path><path d="M752 311.24v-8.9L737.66 288l13.75-13.76a2 2 0 0 0 0.59-1.41v-8.07a1 1 0 0 0-1.71-0.71L726.34 288l23.95 24a1 1 0 0 0 1.71-0.76zM828.71 312l23.95-24-23.95-23.95a1 1 0 0 0-1.71 0.71v8.9L841.34 288l-13.75 13.76a2 2 0 0 0-0.59 1.41v8.07a1 1 0 0 0 1.71 0.76z" fill="#d0887c" p-id="16438"></path></svg>