<?xml version="1.0" standalone="no"?><!DOCTYPE svg PUBLIC "-//W3C//DTD SVG 1.1//EN" "http://www.w3.org/Graphics/SVG/1.1/DTD/svg11.dtd"><svg t="1735015568565" class="icon" viewBox="0 0 1024 1024" version="1.1" xmlns="http://www.w3.org/2000/svg" p-id="16130" xmlns:xlink="http://www.w3.org/1999/xlink" width="200" height="200"><path d="M960 1024H64a65.792 65.792 0 0 1-64-65.984V256a64 64 0 0 1 64-64h336L256 0h128l128 170.624L640 0h128L624 192H960a64 64 0 0 1 64 64v702.016A65.728 65.728 0 0 1 960 1024zM766.016 352a32 32 0 0 0-32-32H160a32 32 0 0 0-32 32v512a32 32 0 0 0 32 32h574.016a32 32 0 0 0 32-32v-512zM960 384h-128v128h128V384z m0 256h-128v128h128v-128z" fill="#219BF0" p-id="16131"></path></svg>