<?xml version="1.0" standalone="no"?><!DOCTYPE svg PUBLIC "-//W3C//DTD SVG 1.1//EN" "http://www.w3.org/Graphics/SVG/1.1/DTD/svg11.dtd"><svg t="1733757912627" class="icon" viewBox="0 0 1024 1024" version="1.1" xmlns="http://www.w3.org/2000/svg" p-id="8273" xmlns:xlink="http://www.w3.org/1999/xlink" width="200" height="200"><path d="M807.538 48.356l12.23-11.663a53.476 53.476 0 0 1 75.094 2.276L906.24 50.63a53.191 53.191 0 0 1-1.991 75.093l-12.231 11.378a53.191 53.191 0 0 1-75.094-1.99l-11.377-11.948a52.907 52.907 0 0 1 1.99-74.808z m-314.311 0l11.377-11.094a52.907 52.907 0 0 1 75.094 1.707L590.79 50.63a53.191 53.191 0 0 1-1.991 75.093l-11.947 11.094a52.907 52.907 0 0 1-74.809-1.991l-11.093-11.947a53.476 53.476 0 0 1 2.276-74.524zM320 590.506l-56.889 49.21a54.044 54.044 0 0 0-18.489 40.106V970.81a53.191 53.191 0 0 1-53.19 53.191h-85.334a53.191 53.191 0 0 1-53.191-53.191V900.55h60.87a5.973 5.973 0 0 0 6.259-5.973V721.35a53.191 53.191 0 0 0-52.054-52.907 53.191 53.191 0 0 1-52.906-53.19v-17.92a53.191 53.191 0 0 1 52.906-53.192 53.191 53.191 0 0 0 53.191-53.19V355.84a53.191 53.191 0 0 0-53.19-53.191H53.19A53.191 53.191 0 0 1 0 249.458V232.39A53.191 53.191 0 0 1 53.191 179.2h14.791a53.191 53.191 0 0 0 53.191-53.191V53.19A53.191 53.191 0 0 1 174.364 0h17.067a53.191 53.191 0 0 1 53.191 53.191v79.076a46.933 46.933 0 0 0 46.934 46.933 46.649 46.649 0 0 1 46.648 48.356V256a46.933 46.933 0 0 1-46.648 46.933 46.649 46.649 0 0 0-46.934 46.365v143.929l30.436-26.454L321.707 512A54.044 54.044 0 0 1 320 591.644z m650.809-67.413h-6.827a53.191 53.191 0 0 1-53.76-53.19V349.866a46.933 46.933 0 0 1 46.934-46.934A46.933 46.933 0 0 0 1005.51 256v-23.324a53.191 53.191 0 0 0-53.191-53.192H444.871a53.191 53.191 0 0 0-52.907 53.192V256a46.649 46.649 0 0 0 46.65 46.933 46.933 46.933 0 0 1 46.933 46.934v120.035a53.191 53.191 0 0 1-53.191 53.191h-5.69a53.191 53.191 0 0 0-53.19 53.191v17.067a53.191 53.191 0 0 0 53.19 53.191h6.827a53.191 53.191 0 0 1 53.191 52.907v104.675a51.2 51.2 0 0 1-10.24 31.005l-49.777 71.395a53.191 53.191 0 0 0 12.515 74.525l13.37 9.387a53.191 53.191 0 0 0 73.67-12.516l74.81-105.244a53.191 53.191 0 0 0 9.67-30.72V699.733a53.191 53.191 0 0 1 53.191-53.19h71.111a53.191 53.191 0 0 1 53.192 53.19v270.223A53.191 53.191 0 0 0 839.964 1024h17.067a53.191 53.191 0 0 0 53.191-53.76V700.018a53.191 53.191 0 0 1 53.191-53.191h7.111A53.191 53.191 0 0 0 1024 593.636v-17.352a53.191 53.191 0 0 0-53.191-53.19z m-183.467-52.337a53.191 53.191 0 0 1-52.906 53.19H662.47a53.191 53.191 0 0 1-53.191-53.19V356.978a53.191 53.191 0 0 1 53.191-53.191h71.965a53.191 53.191 0 0 1 52.906 53.19z" p-id="8274" fill="#d81e06"></path></svg>