<?xml version="1.0" standalone="no"?><!DOCTYPE svg PUBLIC "-//W3C//DTD SVG 1.1//EN" "http://www.w3.org/Graphics/SVG/1.1/DTD/svg11.dtd"><svg t="1735079070897" class="icon" viewBox="0 0 1024 1024" version="1.1" xmlns="http://www.w3.org/2000/svg" p-id="26263" xmlns:xlink="http://www.w3.org/1999/xlink" width="200" height="200"><path d="M506.624 513.1264m-450.816 0a450.816 450.816 0 1 0 901.632 0 450.816 450.816 0 1 0-901.632 0Z" fill="#FF9552" p-id="26264"></path><path d="M728.064 310.784h-16.8448c-11.264-33.024-42.4448-56.7808-79.2576-56.7808H267.8272c-46.2848 0-83.8144 37.5296-83.8144 83.8144v242.0736c0 42.5472 34.5088 77.056 77.056 77.056 22.0672 0 39.936 17.8688 39.936 39.936v19.8144c0 27.1872 32.3584 41.4208 52.3776 22.9888l78.4896-72.192a40.00256 40.00256 0 0 1 27.0336-10.5472h172.9536c46.2848 0 83.8144-37.5296 83.8144-83.8144V376.4736h12.3392c24.9344 0 45.2096 20.2752 45.2096 45.2096v225.4336c0 21.4528-17.4592 38.912-38.912 38.912-38.6048 0-70.0416 31.4368-70.0416 70.0416v9.8816l-66.816-61.44a69.79584 69.79584 0 0 0-47.4112-18.4832H464.384c-18.1248 0-32.8704 14.7456-32.8704 32.8704s14.7456 32.8704 32.8704 32.8704h85.7088c1.0752 0 2.1504 0.4096 2.9184 1.1264l73.1136 67.2256c11.52 10.5984 26.368 16.4864 41.728 16.4864 8.6016 0 17.0496-1.792 25.1392-5.3248 22.8352-10.0352 37.0688-31.744 37.0688-56.7296v-18.4832c0-2.4064 1.9456-4.352 4.352-4.352 57.7024 0 104.6016-46.9504 104.6016-104.6016V421.6832c-0.0512-61.184-49.7664-110.8992-110.9504-110.8992z m-215.3472 240.3328H327.2704c-16.9472 0-30.72-13.7728-30.72-30.72s13.7728-30.72 30.72-30.72h185.4464c16.9472 0 30.72 13.7728 30.72 30.72s-13.7728 30.72-30.72 30.72z m62.208-119.8592H327.2704c-16.9472 0-30.72-13.7728-30.72-30.72s13.7728-30.72 30.72-30.72h247.6544c16.9472 0 30.72 13.7728 30.72 30.72s-13.7728 30.72-30.72 30.72z" fill="#FFFFFF" p-id="26265"></path></svg>