<?xml version="1.0" standalone="no"?><!DOCTYPE svg PUBLIC "-//W3C//DTD SVG 1.1//EN" "http://www.w3.org/Graphics/SVG/1.1/DTD/svg11.dtd"><svg t="1735211214445" class="icon" viewBox="0 0 1024 1024" version="1.1" xmlns="http://www.w3.org/2000/svg" p-id="18303" xmlns:xlink="http://www.w3.org/1999/xlink" width="200" height="200"><path d="M303.34 499.7h416.07v368.29H303.34z" fill="#B4E7B4" p-id="18304"></path><path d="M855.02 903.92H163.84c-32.25 0-58.49-26.24-58.49-58.49V404.5c0-11.05 8.95-20 20-20s20 8.95 20 20v440.94c0 10.2 8.29 18.49 18.49 18.49h691.18c10.19 0 18.48-8.29 18.48-18.49V217.66c0-10.19-8.29-18.48-18.48-18.48H721.47v189.11c0 17.64-14.36 32-32 32H329.39c-17.64 0-32-14.36-32-32v-189.1H163.84c-10.2 0-18.49 8.29-18.49 18.48v32.88c0 11.05-8.95 20-20 20s-20-8.95-20-20v-32.88c0-32.25 26.24-58.48 58.49-58.48h153.55c11.05 0 20 8.95 20 20V380.3h344.08V179.19c0-11.05 8.95-20 20-20h153.55c32.25 0 58.48 26.23 58.48 58.48v627.77c0 32.25-26.24 58.48-58.48 58.48z" fill="#004039" p-id="18305"></path><path d="M125.35 350.17c-11.05 0-20-8.95-20-20v-9.29c0-11.05 8.95-20 20-20s20 8.95 20 20v9.29c0 11.05-8.96 20-20 20zM689.47 420.29H329.39c-17.64 0-32-14.36-32-32v-209.1c0-11.05 8.95-20 20-20h384.08c11.05 0 20 8.95 20 20V388.3c0 17.64-14.36 31.99-32 31.99z m-352.08-40h344.08v-181.1H337.39v181.1z" fill="#004039" p-id="18306"></path><path d="M623.28 356.5c-11.05 0-20-8.95-20-20v-89.63c0-11.05 8.95-20 20-20s20 8.95 20 20v89.63c0 11.05-8.96 20-20 20z" fill="#004039" p-id="18307"></path></svg>