<?xml version="1.0" encoding="UTF-8"?>
<svg xmlns="http://www.w3.org/2000/svg" xmlns:xlink="http://www.w3.org/1999/xlink" width="45px" height="45px" viewBox="0 0 45 45" version="1.1">
<g id="surface1">
<path style=" stroke:none;fill-rule:nonzero;fill:rgb(2.352941%,62.352943%,80.784315%);fill-opacity:1;" d="M 43.960938 0 C 44.34375 0 44.65625 0.5 44.65625 1.113281 C 44.65625 1.308594 44.621094 1.503906 44.5625 1.671875 L 29.976562 42.214844 C 29.355469 43.9375 28.210938 45 26.976562 45 L 17.066406 45 C 16.683594 45 16.371094 44.5 16.371094 43.886719 C 16.371094 43.691406 16.402344 43.496094 16.464844 43.328125 L 31.050781 2.785156 C 31.667969 1.0625 32.8125 0 34.050781 0 Z M 43.960938 0 "/>
<path style=" stroke:none;fill-rule:nonzero;fill:rgb(2.352941%,62.352943%,80.784315%);fill-opacity:1;" d="M 10.59375 0 C 11.832031 0 12.972656 1.0625 13.59375 2.785156 L 14.140625 4.300781 L 14.6875 2.78125 C 15.308594 1.058594 16.449219 0 17.6875 0 L 27.566406 0 C 27.949219 0 28.257812 0.5 28.257812 1.113281 C 28.257812 1.308594 28.226562 1.503906 28.164062 1.671875 L 13.59375 42.214844 C 12.972656 43.9375 11.828125 45 10.589844 45 L 0.695312 45 C 0.3125 45 0 44.5 0 43.886719 C 0 43.691406 0.03125 43.496094 0.09375 43.328125 L 7.585938 22.511719 L 0.09375 1.671875 C 0.0351562 1.515625 0.00390625 1.339844 0 1.160156 L 0 1.113281 C 0 0.5 0.308594 0 0.695312 0 Z M 10.59375 0 "/>
<path style=" stroke:none;fill-rule:nonzero;fill:rgb(2.352941%,62.352943%,80.784315%);fill-opacity:1;" d="M 39.148438 28.015625 C 39.253906 28.113281 39.34375 28.253906 39.402344 28.425781 L 44.738281 43.328125 C 44.929688 43.863281 44.816406 44.542969 44.484375 44.851562 C 44.378906 44.949219 44.257812 45 44.136719 45 L 33.449219 45 C 33.066406 45 32.753906 44.5 32.753906 43.886719 C 32.753906 43.691406 32.785156 43.496094 32.847656 43.328125 L 38.203125 28.425781 C 38.394531 27.890625 38.816406 27.707031 39.148438 28.015625 Z M 39.148438 28.015625 "/>
</g>
</svg>
