<?xml version="1.0" standalone="no"?><!DOCTYPE svg PUBLIC "-//W3C//DTD SVG 1.1//EN" "http://www.w3.org/Graphics/SVG/1.1/DTD/svg11.dtd"><svg t="1733758009720" class="icon" viewBox="0 0 1024 1024" version="1.1" xmlns="http://www.w3.org/2000/svg" p-id="9399" xmlns:xlink="http://www.w3.org/1999/xlink" width="200" height="200"><path d="M64 992.000589c0 17.672828-14.326584 31.999411-32.000589 31.999411C14.326584 1024 0 1009.673416 0 991.999411V752.000883c0-97.202317 78.797389-175.999706 175.999706-175.999706H848.001471c97.202317 0 175.999706 78.797389 175.999706 175.999706v240.000883C1024 1009.672239 1009.673416 1024 991.999411 1024c-17.672828 0-31.999411-14.326584-31.999411-32.000589V752.000883c0-61.855485-50.144221-111.999706-111.999706-111.999706H175.998529c-61.855485 0-111.999706 50.144221-111.999706 111.999706v240.000883z m0-960v239.999705c0 61.855485 50.144221 111.999706 111.999706 111.999706H848.001471c61.855485 0 111.999706-50.144221 111.999706-111.999706V32.000589C960 14.325407 974.326584 0 992.000589 0 1009.672239 0 1024 14.326584 1024 32.000589v239.999705c0 97.202317-78.797389 175.999706-175.999706 175.999706H175.998529C78.797389 448 0 369.202611 0 272.000294V32.000589C0 14.325407 14.326584 0 32.000589 0c17.672828 0 31.999411 14.326584 31.999411 32.000589z m163.531623 815.998528h568.937931a3.531034 3.531034 0 0 1 3.531035 3.531035v56.939108a3.531034 3.531034 0 0 1-3.531035 3.531034H227.531623a3.531034 3.531034 0 0 1-3.531034-3.531034v-56.937931a3.531034 3.531034 0 0 1 3.531034-3.531035z m0-735.999411h568.937931a3.531034 3.531034 0 0 1 3.531035 3.531034v56.937931a3.531034 3.531034 0 0 1-3.531035 3.531035H227.531623a3.531034 3.531034 0 0 1-3.531034-3.531035V115.53074a3.531034 3.531034 0 0 1 3.531034-3.531034z" fill="#1296db" p-id="9400"></path></svg>