<?xml version="1.0" standalone="no"?><!DOCTYPE svg PUBLIC "-//W3C//DTD SVG 1.1//EN" "http://www.w3.org/Graphics/SVG/1.1/DTD/svg11.dtd"><svg t="1733582011664" class="icon" viewBox="0 0 1024 1024" version="1.1" xmlns="http://www.w3.org/2000/svg" p-id="37231" xmlns:xlink="http://www.w3.org/1999/xlink" width="200" height="200"><path d="M739.84 506.88c-87.04 0-189.44 79.36-286.72 156.16-97.28 76.8-186.88 148.48-273.92 148.48-74.24 0-135.68-33.28-179.2-64v168.96c0 20.48 17.92 35.84 35.84 35.84h949.76c20.48 0 35.84-15.36 35.84-35.84V645.12s-122.88-138.24-281.6-138.24z" fill="#996938" p-id="37232"></path><path d="M988.16 74.24H35.84C17.92 74.24 0 89.6 0 110.08v537.6c25.6 23.04 97.28 84.48 179.2 84.48 58.88 0 145.92-66.56 227.84-133.12 107.52-84.48 220.16-171.52 332.8-171.52 122.88 0 225.28 66.56 284.16 112.64V110.08c0-20.48-15.36-35.84-35.84-35.84zM289.28 512c-81.92 0-148.48-66.56-148.48-148.48 0-81.92 66.56-148.48 148.48-148.48 81.92 0 148.48 66.56 148.48 148.48 0 81.92-66.56 148.48-148.48 148.48z" fill="#996938" p-id="37233"></path></svg>