<?xml version="1.0" standalone="no"?><!DOCTYPE svg PUBLIC "-//W3C//DTD SVG 1.1//EN" "http://www.w3.org/Graphics/SVG/1.1/DTD/svg11.dtd"><svg t="1735263966205" class="icon" viewBox="0 0 1024 1024" version="1.1" xmlns="http://www.w3.org/2000/svg" p-id="14462" xmlns:xlink="http://www.w3.org/1999/xlink" width="200" height="200"><path d="M22 534a490 490 0 1 0 980 0 490 490 0 1 0-980 0z" fill="#F24976" p-id="14463"></path><path d="M91.958 786.424C177.69 928.776 333.718 1024 512 1024s334.31-95.224 420.042-237.576V123.1H91.958v663.324z" fill="#D9EAFC" p-id="14464"></path><path d="M91.958 123.1v663.324a491.42 491.42 0 0 0 39.684 56.478V123.1H91.958z" fill="#AEC1ED" p-id="14465"></path><path d="M912.042 0H111.958c-11 0-20 9-20 20v105.1H932.04V20c0.002-11-8.998-20-19.998-20z" fill="#293D7C" p-id="14466"></path><path d="M212.7 76.754a16.222 16.222 0 0 1-16.204-16.202c0-4.258 1.728-8.426 4.752-11.45A16.3 16.3 0 0 1 212.7 44.35c4.278 0 8.446 1.728 11.472 4.752a16.37 16.37 0 0 1 4.73 11.45A16.33 16.33 0 0 1 224.172 72a16.326 16.326 0 0 1-11.472 4.754z" fill="#FFCA51" p-id="14467"></path><path d="M157.702 76.754a16.222 16.222 0 0 1-16.204-16.202c0-4.258 1.728-8.426 4.752-11.45a16.3 16.3 0 0 1 11.452-4.752c4.278 0 8.446 1.728 11.472 4.752a16.37 16.37 0 0 1 4.73 11.45A16.33 16.33 0 0 1 169.174 72a16.32 16.32 0 0 1-11.472 4.754z" fill="#E26693" p-id="14468"></path><path d="M265.856 76.754a16.298 16.298 0 0 1-11.45-4.732 16.306 16.306 0 0 1-4.754-11.47 16.29 16.29 0 0 1 4.754-11.45 16.216 16.216 0 0 1 11.45-4.752c4.256 0 8.448 1.728 11.45 4.752a16.29 16.29 0 0 1 4.754 11.45 16.306 16.306 0 0 1-4.754 11.47 16.376 16.376 0 0 1-11.45 4.732z" fill="#37C47A" p-id="14469"></path><path d="M183.788 159.756c-5.44 0-9.89 4.454-9.89 9.892V280.45c0 5.44 4.452 9.892 9.89 9.892h517.934V159.756H183.788z" fill="#FFFFFF" p-id="14470"></path><path d="M213.582 280.452V169.65c0-5.44 4.452-9.892 9.89-9.892h-39.684c-5.44 0-9.89 4.454-9.89 9.892v110.802c0 5.44 4.452 9.892 9.89 9.892h39.684c-5.438 0-9.89-4.452-9.89-9.892z" fill="#EEF6FF" p-id="14471"></path><path d="M821.166 403.98H389.068a15 15 0 0 1 0-30h432.098c8.286 0 15 6.716 15 15s-6.714 15-15 15z m0 50.998H389.068a15 15 0 0 1 0-30h432.098c8.286 0 15 6.716 15 15s-6.714 15-15 15z m0 50.996H389.068a15 15 0 0 1 0-30h432.098c8.286 0 15 6.716 15 15s-6.714 15-15 15z m-479.268 7.534c0 5.5-4.5 10-10 10h-148c-5.5 0-10-4.5-10-10v-148c0-5.5 4.5-10 10-10h148c5.5 0 10 4.5 10 10v148z" fill="#FFFFFF" p-id="14472"></path><path d="M821.166 616.97H389.068a15 15 0 0 1 0-30h432.098a15 15 0 0 1 15 15 15 15 0 0 1-15 15z m0 50.996H389.068a15 15 0 0 1 0-30h432.098a15 15 0 0 1 15 15c0 8.286-6.714 15-15 15z m-141.214 50.998H389.068a15 15 0 0 1 0-30h290.884a15 15 0 0 1 0 30z m-338.054 7.534c0 5.5-4.5 10-10 10h-148c-5.5 0-10-4.5-10-10v-148c0-5.5 4.5-10 10-10h148c5.5 0 10 4.5 10 10v148z" fill="#91E0E8" p-id="14473"></path><path d="M331.898 781.488h-148c-5.5 0-10 4.5-10 10v97.152a491.988 491.988 0 0 0 78.27 60.848h79.73c5.5 0 10-4.5 10-10v-148c0-5.5-4.5-10-10-10z" fill="#F87EAB" p-id="14474"></path><path d="M213.582 513.508v-148c0-5.5 4.5-10 10-10h-39.684c-5.5 0-10 4.5-10 10v148c0 5.5 4.5 10 10 10h39.684c-5.5 0-10-4.5-10-10z" fill="#EEF6FF" p-id="14475"></path><path d="M213.582 726.498v-148c0-5.5 4.5-10 10-10h-39.684c-5.5 0-10 4.5-10 10v148c0 5.5 4.5 10 10 10h39.684c-5.5 0-10-4.5-10-10z" fill="#5DC1D8" p-id="14476"></path><path d="M213.582 791.488c0-5.5 4.5-10 10-10h-39.684c-5.5 0-10 4.5-10 10v97.152a492.034 492.034 0 0 0 39.684 33.98V791.488z" fill="#E26693" p-id="14477"></path><path d="M821.166 829.958H389.068a15 15 0 0 1 0-30h432.098a15 15 0 0 1 15 15c0 8.286-6.714 15-15 15z m0 50.998H389.068a15 15 0 0 1 0-30h432.098c8.286 0 15 6.716 15 15s-6.714 15-15 15z m-273.984 50.998H389.068a15 15 0 0 1 0-30h158.114a15 15 0 0 1 0 30z" fill="#F87EAB" p-id="14478"></path><path d="M840.102 159.756h-142.38v130.588h142.38c5.5 0 10-4.5 10-10V169.756c0-5.5-4.5-10-10-10z" fill="#2BB381" p-id="14479"></path><path d="M828.362 254.71l-17.658-17.656a45.176 45.176 0 0 0 4.516-19.67 45.102 45.102 0 0 0-13.294-32.1c-8.574-8.576-19.976-13.298-32.102-13.298s-23.526 4.722-32.1 13.294a45.094 45.094 0 0 0-13.298 32.102 45.106 45.106 0 0 0 13.298 32.104 45.11 45.11 0 0 0 32.098 13.294h0.004c6.93 0 13.602-1.592 19.668-4.516l17.658 17.658c2.928 2.93 6.768 4.394 10.606 4.394s7.678-1.464 10.608-4.394a15.002 15.002 0 0 0-0.004-21.212z m-58.54-21.93a15.294 15.294 0 0 1-10.886-4.508 15.298 15.298 0 0 1-4.512-10.89c0-4.112 1.602-7.978 4.51-10.886s6.776-4.51 10.888-4.51 7.978 1.602 10.888 4.512c2.906 2.906 4.508 6.772 4.508 10.886s-1.602 7.98-4.51 10.886a15.294 15.294 0 0 1-10.884 4.51h-0.002z" fill="#0F9390" p-id="14480"></path></svg>