<?xml version="1.0" standalone="no"?><!DOCTYPE svg PUBLIC "-//W3C//DTD SVG 1.1//EN" "http://www.w3.org/Graphics/SVG/1.1/DTD/svg11.dtd"><svg t="1735079812533" class="icon" viewBox="0 0 1024 1024" version="1.1" xmlns="http://www.w3.org/2000/svg" p-id="33207" xmlns:xlink="http://www.w3.org/1999/xlink" width="200" height="200"><path d="M0 0h1024v1024H0z" fill="#378FC3" p-id="33208"></path><path d="M749.568 411.648a239.8208 239.8208 0 0 0-475.136 0 205.3632 205.3632 0 0 0 32.256 408.064H512a16.6912 16.6912 0 0 1-11.776-5.12L409.6 725.504a16.9984 16.9984 0 0 1 24.064-24.064l59.904 59.904v-256a16.896 16.896 0 0 1 33.792 0v256.512l59.904-59.904a16.9984 16.9984 0 1 1 24.064 24.064l-88.576 89.088a20.48 20.48 0 0 1-10.752 4.608h205.312a205.4656 205.4656 0 0 0 32.256-408.064z" fill="#FFFFFF" p-id="33209"></path></svg>