<?xml version="1.0" standalone="no"?><!DOCTYPE svg PUBLIC "-//W3C//DTD SVG 1.1//EN" "http://www.w3.org/Graphics/SVG/1.1/DTD/svg11.dtd"><svg t="1733908162597" class="icon" viewBox="0 0 1024 1024" version="1.1" xmlns="http://www.w3.org/2000/svg" p-id="13574" xmlns:xlink="http://www.w3.org/1999/xlink" width="200" height="200"><path d="M216.248 457.938l120.845-69.963c6.36-6.36 12.72-19.08 0-31.801L82.683 178.087 222.61 69.963l337.093 108.124s6.36 6.36 203.528-146.286C795.03 12.721 820.472 6.361 852.273 0 896.795 0 992.2 25.441 1004.92 50.882c12.72 19.08 6.36 57.242-25.44 82.683 0 0-432.498 311.652-667.827 477.019-12.72 19.08-31.801 25.44-44.522 31.801-31.8 0-50.882 0-82.683 6.36-12.72 0-31.801 6.36-44.522-12.72L0 496.099l57.242-69.962 159.006 31.8zM63.602 1024c-19.08 0-31.8-19.08-31.8-44.522s12.72-44.521 31.8-44.521h731.43c19.08 0 31.8 19.08 31.8 44.521s-12.72 44.522-31.8 44.522H63.601z" p-id="13575"></path></svg>