<?xml version="1.0" encoding="UTF-8"?>
<svg xmlns="http://www.w3.org/2000/svg" xmlns:xlink="http://www.w3.org/1999/xlink" width="45px" height="35px" viewBox="0 0 45 35" version="1.1">
<g id="surface1">
<path style=" stroke:none;fill-rule:nonzero;fill:rgb(2.352941%,62.352943%,80.784315%);fill-opacity:1;" d="M 43.960938 0 C 44.34375 0 44.65625 0.386719 44.65625 0.867188 C 44.65625 1.019531 44.621094 1.167969 44.5625 1.300781 L 29.976562 32.835938 C 29.355469 34.175781 28.210938 35 26.976562 35 L 17.066406 35 C 16.683594 35 16.371094 34.613281 16.371094 34.132812 C 16.371094 33.980469 16.402344 33.832031 16.464844 33.699219 L 31.050781 2.164062 C 31.667969 0.824219 32.8125 0 34.050781 0 Z M 43.960938 0 "/>
<path style=" stroke:none;fill-rule:nonzero;fill:rgb(2.352941%,62.352943%,80.784315%);fill-opacity:1;" d="M 10.59375 0 C 11.832031 0 12.972656 0.824219 13.59375 2.164062 L 14.140625 3.347656 L 14.6875 2.164062 C 15.308594 0.824219 16.449219 0 17.6875 0 L 27.566406 0 C 27.949219 0 28.257812 0.386719 28.257812 0.867188 C 28.257812 1.019531 28.226562 1.167969 28.164062 1.300781 L 13.59375 32.832031 C 12.972656 34.175781 11.828125 35 10.589844 35 L 0.695312 35 C 0.3125 35 0 34.613281 0 34.132812 C 0 33.980469 0.03125 33.832031 0.09375 33.699219 L 7.585938 17.507812 L 0.09375 1.300781 C 0.0351562 1.179688 0.00390625 1.042969 0 0.902344 L 0 0.867188 C 0 0.386719 0.308594 0 0.695312 0 Z M 10.59375 0 "/>
<path style=" stroke:none;fill-rule:nonzero;fill:rgb(2.352941%,62.352943%,80.784315%);fill-opacity:1;" d="M 39.148438 21.789062 C 39.253906 21.867188 39.34375 21.976562 39.402344 22.109375 L 44.738281 33.699219 C 44.929688 34.117188 44.816406 34.644531 44.484375 34.882812 C 44.378906 34.960938 44.257812 35 44.136719 35 L 33.449219 35 C 33.066406 35 32.753906 34.613281 32.753906 34.132812 C 32.753906 33.980469 32.785156 33.832031 32.847656 33.699219 L 38.203125 22.109375 C 38.394531 21.691406 38.816406 21.550781 39.148438 21.789062 Z M 39.148438 21.789062 "/>
</g>
</svg>
