<?xml version="1.0" standalone="no"?><!DOCTYPE svg PUBLIC "-//W3C//DTD SVG 1.1//EN" "http://www.w3.org/Graphics/SVG/1.1/DTD/svg11.dtd"><svg t="1735014342348" class="icon" viewBox="0 0 1024 1024" version="1.1" xmlns="http://www.w3.org/2000/svg" p-id="9176" xmlns:xlink="http://www.w3.org/1999/xlink" width="200" height="200"><path d="M682.666667 440.888889m-142.222223 0a142.222222 142.222222 0 1 0 284.444445 0 142.222222 142.222222 0 1 0-284.444445 0Z" fill="#2c2c2c" p-id="9177"></path><path d="M497.777778 241.777778c109.781333 0 200.192 82.915556 212.024889 189.539555C792.007111 450.090667 853.333333 523.662222 853.333333 611.555556c0 102.115556-82.773333 184.888889-184.888889 184.888888H341.333333c-102.115556 0-184.888889-82.773333-184.888889-184.888888 0-82.602667 54.158222-152.547556 128.910223-176.270223C295.352889 326.769778 386.631111 241.777778 497.777778 241.777778z m0 71.111111c-73.614222 0-134.912 56.206222-141.610667 128.924444l-4.323555 46.990223-44.984889 14.264888A113.848889 113.848889 0 0 0 227.555556 611.555556a113.777778 113.777778 0 0 0 113.777777 113.777777h327.111111a113.777778 113.777778 0 0 0 113.777778-113.777777 113.820444 113.820444 0 0 0-88.248889-110.904889l-49.28-11.249778-5.575111-50.232889C631.182222 367.644444 570.410667 312.888889 497.777778 312.888889z m113.777778 177.777778a35.555556 35.555556 0 0 1 35.555555 35.555555c0 82.474667-66.858667 149.333333-149.333333 149.333334S348.444444 608.696889 348.444444 526.222222a35.555556 35.555556 0 1 1 71.111112 0 78.222222 78.222222 0 0 0 156.444444 0 35.555556 35.555556 0 0 1 35.555556-35.555555z" fill="#2c2c2c" p-id="9178"></path></svg>