<?xml version="1.0" standalone="no"?><!DOCTYPE svg PUBLIC "-//W3C//DTD SVG 1.1//EN" "http://www.w3.org/Graphics/SVG/1.1/DTD/svg11.dtd"><svg t="1733757700020" class="icon" viewBox="0 0 1024 1024" version="1.1" xmlns="http://www.w3.org/2000/svg" p-id="5396" xmlns:xlink="http://www.w3.org/1999/xlink" width="200" height="200"><path d="M938.688 597.312h-85.376v341.312H768V597.312h-85.312V512h256v85.312z m-339.648 136.32l40.96 204.992H554.688L520.512 768h-51.2v170.624H384V512h128a128 128 0 0 1 87.04 221.632zM512 682.624a42.688 42.688 0 0 0 0-85.312h-42.688v85.312H512z m341.312-348.544v135.232h85.376V298.624l-213.376-213.312h-640v384h85.376V170.624h519.232l163.392 163.456z m-640 348.544A42.688 42.688 0 1 1 256 640h85.312a128 128 0 1 0-128 128 42.688 42.688 0 1 1-42.624 42.624H85.312a128 128 0 1 0 128-128z" p-id="5397"></path></svg>