<?xml version="1.0" standalone="no"?><!DOCTYPE svg PUBLIC "-//W3C//DTD SVG 1.1//EN" "http://www.w3.org/Graphics/SVG/1.1/DTD/svg11.dtd"><svg t="1735077036344" class="icon" viewBox="0 0 1024 1024" version="1.1" xmlns="http://www.w3.org/2000/svg" p-id="15582" xmlns:xlink="http://www.w3.org/1999/xlink" width="200" height="200"><path d="M985.742 749.936c0 130.864-106.178 236.964-237.17 236.964H274.298c-130.954 0-237.092-106.102-237.092-236.964V276.018c0-130.864 106.138-236.966 237.092-236.966h474.274c130.992 0 237.17 106.102 237.17 236.966v473.918z" fill="#0F4260" p-id="15583"></path><path d="M418.734 729.302c5.442 14.27 15.13 27.73 29.254 40.378 14.01 12.574 30.954 22.37 50.87 29.276 19.876 6.79 35.16 10.218 61.098 10.218 22.772 0 43.998-2.43 63.606-7.212 19.644-4.782 41.606-13.19 65.766-25.106V683.48c-28.366 19.478-56.926 29.234-85.564 29.234-16.17 0-30.416-3.972-42.996-11.84-9.456-5.786-18.138-15.852-21.576-25.534-3.472-9.716-3.048-29.542-3.048-63.906v-151.912h130.956v-105.754h-130.96v-136.994h-80.548c-3.628 30.546-10.266 55.732-19.876 75.478-9.61 19.786-22.308 36.718-38.208 50.874-15.826 14.116-41.654 24.954-63.884 32.512v83.886h76.968V667.28c-0.002 27.08 2.7 47.75 8.142 62.022z" fill="#FFFFFF" p-id="15584"></path><path d="M418.734 729.302c5.442 14.27 15.13 27.73 29.254 40.378 14.01 12.574 30.954 22.37 50.87 29.276 19.876 6.79 35.16 10.218 61.098 10.218 22.772 0 43.998-2.43 63.606-7.212 19.644-4.782 41.606-13.19 65.766-25.106V683.48c-28.366 19.478-56.926 29.234-85.564 29.234-16.17 0-30.416-3.972-42.996-11.84-9.456-5.786-18.138-15.852-21.576-25.534-3.472-9.716-3.048-29.542-3.048-63.906v-151.912h130.956v-105.754h-130.96v-136.994h-80.548c-3.628 30.546-10.266 55.732-19.876 75.478-9.61 19.786-22.308 36.718-38.208 50.874-15.826 14.116-41.654 24.954-63.884 32.512v83.886h76.968V667.28c-0.002 27.08 2.7 47.75 8.142 62.022z" fill="#FFFFFF" p-id="15585"></path><path d="M536.14 216.778v136.994h130.956v105.754H536.14v151.912c0 34.366-0.424 54.19 3.048 63.906 3.438 9.682 12.122 19.748 21.576 25.534 12.58 7.868 26.826 11.84 42.996 11.84 28.638 0 57.2-9.756 85.564-29.234v93.376c-24.16 11.916-46.122 20.324-65.766 25.106-19.608 4.784-40.834 7.212-63.606 7.212-25.938 0-41.22-3.43-61.098-10.218-19.916-6.906-36.858-16.702-50.87-29.276-14.126-12.648-23.814-26.11-29.254-40.378-5.442-14.274-8.144-34.944-8.144-62.02v-207.76h-76.968V375.64c22.232-7.56 48.06-18.396 63.884-32.512 15.9-14.156 28.6-31.086 38.208-50.874 9.612-19.746 16.248-44.93 19.876-75.478h80.554m0-19.752h-80.548a19.754 19.754 0 0 0-19.616 17.424c-3.35 28.208-9.416 51.478-18.022 69.162-8.562 17.63-19.544 32.266-33.582 44.764-7.566 6.75-23.602 17.17-57.11 28.566a19.754 19.754 0 0 0-13.394 18.702v83.886c0 10.91 8.844 19.754 19.754 19.754h57.214v188.002c0 29.808 3.088 52.398 9.44 69.056 6.584 17.264 18.202 33.434 34.536 48.058 15.968 14.332 35.346 25.514 57.576 33.222 21 7.174 38.748 11.308 67.57 11.308 24.162 0 47.136-2.616 68.288-7.776 20.866-5.078 44.36-14.022 69.822-26.58a19.758 19.758 0 0 0 11.016-17.716V683.48a19.752 19.752 0 0 0-30.936-16.286c-24.896 17.098-49.922 25.766-74.382 25.766-12.378 0-23.016-2.89-32.522-8.834-0.054-0.036-0.11-0.068-0.164-0.102-5.71-3.494-11.416-10.068-13.272-15.292-1.974-5.524-1.95-24.82-1.918-47.166 0.004-3.226 0.008-6.604 0.008-10.13V479.28h111.202c10.91 0 19.754-8.844 19.754-19.754v-105.754c0-10.91-8.844-19.754-19.754-19.754h-111.202v-117.24c-0.004-10.91-8.848-19.754-19.758-19.754z" fill="#0B3248" p-id="15586"></path><path d="M728.078 956.122H294.83c-124.896 0-226.506-101.636-226.506-226.566V296.358c0-124.908 101.61-226.526 226.506-226.526h433.248c124.918 0 226.544 101.62 226.544 226.526v433.198c0.002 124.928-101.626 226.566-226.544 226.566zM294.83 89.636c-113.976 0-206.702 92.734-206.702 206.72v433.198c0 114.008 92.726 206.762 206.702 206.762h433.248c113.996 0 206.74-92.754 206.74-206.762V296.358c0-113.986-92.744-206.72-206.74-206.72H294.83z" fill="#0B3248" p-id="15587"></path></svg>