<?xml version="1.0" encoding="UTF-8"?>
<svg width="45px" height="28px" viewBox="0 0 45 28" version="1.1" xmlns="http://www.w3.org/2000/svg" xmlns:xlink="http://www.w3.org/1999/xlink">
    <title>编组</title>
    <g id="页面" stroke="none" stroke-width="1" fill="none" fill-rule="evenodd">
        <g id="Large备份-2" transform="translate(-40.000000, -22.000000)" fill="#069FCE" fill-rule="nonzero">
            <g id="编组" transform="translate(40.000000, 22.000000)">
                <path d="M43.9612643,0 C44.3442729,0 44.6547627,0.310489833 44.6547627,0.693498452 C44.6547627,0.81537271 44.6226451,0.935094823 44.5616452,1.04060477 L29.9765694,26.2680393 C29.3568924,27.3398789 28.2127436,28 26.9746646,28 L17.0649543,28 C16.6819456,28 16.3714558,27.6895102 16.3714558,27.3065015 C16.3714558,27.1846273 16.4035734,27.0649052 16.4645733,26.9593952 L31.0496491,1.73196067 C31.6693261,0.660121113 32.8134749,0 34.051554,0 L43.9612643,0 Z" id="路径"></path>
                <path d="M10.5920988,0 C11.8301091,0 12.9742053,0.660048475 13.5939074,1.73179419 L14.1402231,2.67673065 L14.6872294,1.73124351 C15.3070143,0.659808211 16.4509365,0 17.6887195,0 L27.5649187,0 C27.9479273,0 28.2584171,0.310489833 28.2584171,0.693498452 C28.2584171,0.815283435 28.2263465,0.934921048 28.1654314,1.04037684 L13.5936568,26.2668997 C12.9741515,27.3393816 11.8296426,28 10.5910933,28 L0.694076719,28 C0.3110681,28 0.00057826706,27.6895102 0.00057826706,27.3065015 C0.00057826706,27.1845711 0.0327254724,27.0647958 0.0937786982,26.9592518 L7.58631594,14.0067616 L0.0930558645,1.04049817 C0.0367848587,0.943127746 0.00510858262,0.833659648 0.000568273901,0.721569997 L0,0.693498452 C0,0.310489833 0.310489833,0 0.693498452,0 L10.5920988,0 Z" id="路径"></path>
                <path d="M39.1489805,17.4322047 C39.2547157,17.4932512 39.3424605,17.58113 39.4033455,17.6869582 L44.738691,26.9606683 C44.9296894,27.2926551 44.8153958,27.7166183 44.483409,27.9076167 C44.378202,27.9681444 44.2589517,28 44.1375758,28 L33.4480321,28 C33.0650235,28 32.7545336,27.6895102 32.7545336,27.3065015 C32.7545336,27.1847668 32.7865778,27.0651767 32.8474454,26.9597514 L38.2016436,17.6860413 C38.3931484,17.3543464 38.8172856,17.2406999 39.1489805,17.4322047 Z" id="路径"></path>
            </g>
        </g>
    </g>
</svg>