<?xml version="1.0" standalone="no"?><!DOCTYPE svg PUBLIC "-//W3C//DTD SVG 1.1//EN" "http://www.w3.org/Graphics/SVG/1.1/DTD/svg11.dtd"><svg t="1733666126699" class="icon" viewBox="0 0 1024 1024" version="1.1" xmlns="http://www.w3.org/2000/svg" p-id="20458" xmlns:xlink="http://www.w3.org/1999/xlink" width="200" height="200"><path d="M857.344 829.866667c23.68 0.085333 42.837333 18.688 42.837333 41.770666a42.026667 42.026667 0 0 1-32.853333 40.618667l-4.906667 0.853333-5.12 0.298667H166.613333a42.325333 42.325333 0 0 1-42.837333-41.770667c0-19.541333 13.781333-36.096 32.853333-40.618666l4.906667-0.853334 5.12-0.298666h690.773333z m-339.413333-725.333334c121.301333 0 219.733333 95.317333 219.733333 213.034667a210.218667 210.218667 0 0 1-80.469333 164.778667l-8.618667 6.528-2.432 1.578666 41.002667 91.989334 153.472 0.042666c19.2 1.493333 36.522667 11.093333 47.658666 26.026667l3.498667 5.12 2.986667 5.546667 2.432 5.76 1.834666 6.058666 1.237334 6.954667-0.042667 92.16a64.213333 64.213333 0 0 1-42.154667 52.48l-5.888 1.877333-6.058666 1.322667-6.4 0.768H186.752a65.365333 65.365333 0 0 1-59.050667-41.813333l-1.877333-5.717334-1.28-5.888-0.725333-6.570666v-84.565334c1.706667-25.514667 18.901333-47.317333 43.306666-55.893333l5.76-1.706667 5.930667-1.28 6.570667-0.64 164.053333-0.042666 40.746667-91.562667-2.432-1.664a212.053333 212.053333 0 0 1-85.333334-129.706667l-1.834666-10.453333-1.365334-10.581333-0.810666-10.752-0.213334-10.154667c0-117.717333 98.389333-213.034667 219.733334-213.034667z m0 83.370667c-74.069333 0-134.144 58.112-134.144 129.578667 0 42.453333 21.418667 81.749333 56.618666 105.813333l7.253334 4.608 7.509333 4.181333 7.594667 3.584c15.786667 7.168 25.301333 22.869333 24.618666 39.68l-0.554666 5.12-1.152 5.034667-1.749334 4.693333-66.986666 150.272a41.856 41.856 0 0 1-22.357334 21.802667l-5.205333 1.792-4.181333 1.024-4.394667 0.64-3.968 0.213333-156.458667-0.170666-0.938666 0.128a14.421333 14.421333 0 0 0-7.850667 4.821333l-1.450667 2.304-0.682666 1.706667-0.170667 18.005333 0.128 0.853333c0.725333 2.986667 2.56 5.632 4.864 7.381334l2.389333 1.408 1.749334 0.725333 583.552 0.042667 2.432-0.298667a13.824 13.824 0 0 0 8.746666-6.186667l1.024-2.261333 0.469334-2.133333v-14.762667l-0.213334-1.706667a13.098667 13.098667 0 0 0-7.082666-8.661333l-2.645334-0.938667-2.901333-0.341333-142.08 0.085333c-1.962667 0-4.053333-0.170667-6.4-0.512a43.349333 43.349333 0 0 1-24.277333-11.605333l-3.754667-4.096-3.2-4.565333-2.346667-4.48-67.157333-150.826667a41.130667 41.130667 0 0 1 13.696-50.048l4.138667-2.645333 11.861333-5.845334a130.346667 130.346667 0 0 0 67.285333-88.917333l1.365334-8.106667 0.853333-8.32 0.256-8.405333c0-71.509333-60.074667-129.664-134.101333-129.664z" p-id="20459" fill="#1296db"></path></svg>