<?xml version="1.0" standalone="no"?><!DOCTYPE svg PUBLIC "-//W3C//DTD SVG 1.1//EN" "http://www.w3.org/Graphics/SVG/1.1/DTD/svg11.dtd"><svg t="1733906006230" class="icon" viewBox="0 0 1024 1024" version="1.1" xmlns="http://www.w3.org/2000/svg" p-id="5466" xmlns:xlink="http://www.w3.org/1999/xlink" width="200" height="200"><path d="M654.805333 69.973333c67.072 0 129.024 22.101333 178.858667 59.477334l-92.672 92.586666-90.453333 90.538667 60.330666 60.373333 183.125334-183.168a298.666667 298.666667 0 0 1-339.541334 460.245334l-265.984 265.941333a128 128 0 1 1-180.992-180.992l265.941334-265.984a298.666667 298.666667 0 0 1 281.386666-399.018667z m-486.997333 725.333334a42.666667 42.666667 0 0 0-3.328 56.618666l3.328 3.712a42.666667 42.666667 0 0 0 56.618667 3.328l3.712-3.328 209.066666-209.066666 99.968-99.925334a213.333333 213.333333 0 0 0 328.874667-208.128l-94.848 94.72a85.333333 85.333333 0 0 1-120.661333 0l-60.373334-60.288a85.333333 85.333333 0 0 1 0-120.704l94.805334-94.805333a213.333333 213.333333 0 0 0-208.128 328.874667L167.808 795.306667z" fill="#50bf57" p-id="5467"></path></svg>