<?xml version="1.0" standalone="no"?><!DOCTYPE svg PUBLIC "-//W3C//DTD SVG 1.1//EN" "http://www.w3.org/Graphics/SVG/1.1/DTD/svg11.dtd"><svg t="1733666644462" class="icon" viewBox="0 0 1024 1024" version="1.1" xmlns="http://www.w3.org/2000/svg" p-id="21534" xmlns:xlink="http://www.w3.org/1999/xlink" width="200" height="200"><path d="M0 0m0 0l1024 0q0 0 0 0l0 1024q0 0 0 0l-1024 0q0 0 0 0l0-1024q0 0 0 0Z" fill="#E8EFF8" p-id="21535"></path><path d="M465.454545 744.727273a23.272727 23.272727 0 0 1 23.272728-23.272728h395.636363a23.272727 23.272727 0 0 1 23.272728 23.272728v23.272727a23.272727 23.272727 0 0 1-23.272728 23.272727H488.727273a23.272727 23.272727 0 0 1-23.272728-23.272727v-23.272727zM93.090909 232.727273a23.272727 23.272727 0 0 1 23.272727-23.272728h395.636364a23.272727 23.272727 0 0 1 23.272727 23.272728v23.272727a23.272727 23.272727 0 0 1-23.272727 23.272727H116.363636a23.272727 23.272727 0 0 1-23.272727-23.272727v-23.272727z" fill="#247ADE" p-id="21536"></path><path d="M490.728727 385.629091A23.272727 23.272727 0 0 1 509.905455 349.090909h350.487272a23.272727 23.272727 0 0 1 18.455273 37.469091l-165.050182 214.551273a46.545455 46.545455 0 0 1-75.170909-1.885091l-147.874909-213.620364z" fill="#A0BFF7" p-id="21537"></path><path d="M118.365091 615.098182A23.272727 23.272727 0 0 0 137.541818 651.636364h350.487273a23.272727 23.272727 0 0 0 18.455273-37.469091l-165.050182-214.551273a46.545455 46.545455 0 0 0-75.170909 1.885091l-147.874909 213.620364z" fill="#69CB91" p-id="21538"></path></svg>